PathFileType	4	(X/Y/Z)	D:\Share\Shared_Data\Ergonomics\Sit To Stand Pertubation\S1\Unperturbed_NoHarness.trc
DataRate	CameraRate	NumFrames	NumMarkers	Units	OrigDataRate	OrigDataStartFrame	OrigNumFrames	
100	100	6	18	m	100	1421	281
Frame#	Time	R_Thigh_Med			R_ASIS			R_Pelvis			V_Sacral			L_Pelvis			L_ASIS			Clavical			R_Acromium			L_Acromium			Sternum			Torso			R_Thigh_Lat			R_Thigh			R_Shank_Med			R_Shank_Lat			R_Shank			R_Heel			R_Toe			
		X1	Y1	Z1	X2	Y2	Z2	X3	Y3	Z3	X4	Y4	Z4	X5	Y5	Z5	X6	Y6	Z6	X7	Y7	Z7	X8	Y8	Z8	X9	Y9	Z9	X10	Y10	Z10	X11	Y11	Z11	X12	Y12	Z12	X13	Y13	Z13	X14	Y14	Z14	X15	Y15	Z15	X16	Y16	Z16	X17	Y17	Z17	X18	Y18	Z18	

1421	14.2	0.41536337	0.3994501	0.017771425	0.26120471	0.83964526	0.13993933	0.34021255	0.80874231	0.097921997	0.15006216	0.83267242	-0.0059632111	0.29882025	0.81501111	-0.15030592	0.35391431	0.81882483	-0.10240522	0.48982666	1.1261266	-0.0040628047	0.45260214	1.2200944	0.14106241	0.39732996	1.1899133	-0.20060516	0.47491428	1.1456492	0.097447731	0.48413806	1.1358702	-0.059942387	0.43034854	0.41789435	0.13819409	0.42043433	0.60136304	0.095602676	0.32442175	0.092439835	0.067367592	0.29868481	0.09848349	0.14847255	0.37135443	0.29806583	0.15906493	0.24474609	0.033781013	0.093726837	0.44714236	0.048887089	0.12261819
1422	14.21	0.4140502	0.39994647	0.017780251	0.2652244	0.84291333	0.13942558	0.3430538	0.81303851	0.097705513	0.15384917	0.83623444	-0.0058668561	0.29872351	0.82131281	-0.15102655	0.3570361	0.8232525	-0.1027201	0.48934222	1.1321293	-0.0043109512	0.45155386	1.225725	0.14093924	0.39706586	1.1943914	-0.19982582	0.47467825	1.1515497	0.097295082	0.48394934	1.1417798	-0.060331127	0.42947095	0.41849268	0.13814832	0.42205792	0.60220569	0.095223877	0.32427704	0.092599586	0.067409637	0.29857632	0.098595337	0.14853023	0.37053137	0.29841669	0.15914789	0.24474066	0.03378896	0.093720207	0.44717743	0.048885952	0.12259892
1423	14.22	0.41263379	0.40047244	0.017767052	0.26920383	0.84614453	0.13890266	0.34592044	0.81721948	0.097402351	0.15764505	0.83976685	-0.0058184476	0.29716748	0.82859027	-0.15187505	0.36009293	0.8276452	-0.10304053	0.48881818	1.1379919	-0.0045805893	0.45051315	1.231219	0.14079828	0.3966629	1.1989718	-0.19934332	0.47444299	1.1573248	0.097123917	0.48373358	1.1475601	-0.060746563	0.42850455	0.41910672	0.13809048	0.42363028	0.60303625	0.094806953	0.3241138	0.092770576	0.067450874	0.29846375	0.098716095	0.14858507	0.36966788	0.2987883	0.15921097	0.24473293	0.033798538	0.093714638	0.44724118	0.048907677	0.12258179
1424	14.23	0.41111945	0.40102805	0.017738945	0.27304227	0.84937292	0.13842188	0.34892755	0.82124481	0.096966377	0.16143912	0.84329395	-0.0058516536	0.29446576	0.83657947	-0.15289445	0.36309631	0.8319361	-0.10338795	0.48827808	1.1437102	-0.004869463	0.4494808	1.2365693	0.14064171	0.39613849	1.2036316	-0.19913371	0.47420737	1.162965	0.096931587	0.48349246	1.1532045	-0.061184368	0.42744983	0.41973611	0.13802596	0.42513867	0.60385205	0.094357498	0.3239317	0.0929533	0.067492424	0.29834616	0.098844971	0.14863797	0.36876468	0.29918091	0.15925955	0.24472356	0.03381142	0.093710762	0.44734506	0.048961338	0.12256969
1425	14.24	0.40951709	0.40161331	0.017703104	0.2766893	0.85260693	0.13800967	0.35212683	0.8251084	0.096399139	0.16522145	0.84682391	-0.0059828167	0.2913172	0.84474622	-0.15408832	0.36604504	0.83608722	-0.10376778	0.48774789	1.1492834	-0.0051746798	0.44845529	1.24177	0.14047198	0.39552032	1.2083226	-0.19914134	0.47396771	1.1684641	0.096715561	0.48322885	1.1587067	-0.061641277	0.42631244	0.42038315	0.13795848	0.42656595	0.60464838	0.093881714	0.32373242	0.093149391	0.067535378	0.29822403	0.098981064	0.14869005	0.36782376	0.29959354	0.15930246	0.24471326	0.033828411	0.093708626	0.44749484	0.049051666	0.12256416
1426	14.25	0.40784222	0.40222867	0.017665648	0.28012164	0.85584296	0.13767995	0.35550372	0.82883252	0.09574897	0.16898373	0.85034802	-0.0062108903	0.28861642	0.85243365	-0.15540085	0.3689368	0.84008301	-0.10417229	0.48725333	1.1547131	-0.0054930673	0.44743439	1.2468154	0.14029153	0.39483621	1.212989	-0.19930458	0.47371976	1.1738176	0.096475105	0.48294809	1.1640621	-0.062114902	0.42510199	0.42105157	0.13789119	0.42789484	0.60541962	0.093386406	0.32351956	0.093360992	0.067580696	0.29809839	0.099123367	0.14874226	0.36684769	0.30002463	0.15934958	0.24470296	0.033849751	0.093707802	0.44768558	0.049175117	0.12256456
